<svg width="45" height="43" viewBox="0 0 45 43" fill="none" xmlns="http://www.w3.org/2000/svg">
<path d="M1.09181 19.264C0.0206495 18.662 -0.300699 17.3505 0.299152 16.3185L3.51264 10.75C3.7483 10.32 4.11249 10.019 4.51953 9.847L21.2939 0.387C21.6367 0.129 22.0652 0 22.5151 0C22.9649 0 23.3934 0.129 23.7362 0.387L40.6606 9.933C41.0676 10.148 41.4104 10.492 41.6032 10.922L44.7095 16.34C45.3094 17.372 44.9452 18.6835 43.9383 19.264L41.796 20.511V31.175C41.796 31.992 41.3461 32.7015 40.6606 33.067L23.7362 42.613C23.3934 42.871 22.9649 43 22.5151 43C22.0652 43 21.6367 42.871 21.2939 42.613L4.36957 33.067C3.68403 32.7015 3.23414 31.992 3.23414 31.175V19.264C2.59144 19.6295 1.77736 19.651 1.09181 19.264ZM22.5151 4.6225V19.0275L35.2833 11.825L22.5151 4.6225ZM7.51879 29.9065L20.3727 37.1735V22.747L7.51879 15.5015V29.9065ZM37.5113 29.9065V22.9835L26.7997 29.2185C26.0927 29.6055 25.3001 29.584 24.6574 29.24V37.1735L37.5113 29.9065ZM26.4784 24.424L39.9322 16.6195L38.6896 14.448L25.2358 22.2525L26.4784 24.424Z" fill="#FE8E1C"/>
</svg>
