<svg width="43" height="42" viewBox="0 0 43 42" fill="none" xmlns="http://www.w3.org/2000/svg">
<path d="M30.874 25.2C31.046 23.814 31.175 22.428 31.175 21C31.175 19.572 31.046 18.186 30.874 16.8H38.141C38.485 18.144 38.7 19.551 38.7 21C38.7 22.449 38.485 23.856 38.141 25.2M27.0685 36.876C28.3585 34.545 29.3475 32.025 30.0355 29.4H36.378C34.314 32.865 31.0245 35.553 27.0685 36.876ZM26.531 25.2H16.469C16.254 23.814 16.125 22.428 16.125 21C16.125 19.572 16.254 18.165 16.469 16.8H26.531C26.7245 18.165 26.875 19.572 26.875 21C26.875 22.428 26.7245 23.814 26.531 25.2ZM21.5 37.716C19.7155 35.196 18.275 32.403 17.3935 29.4H25.6065C24.725 32.403 23.2845 35.196 21.5 37.716ZM12.9 12.6H6.622C8.6645 9.114 11.9755 6.426 15.91 5.124C14.62 7.455 13.6525 9.975 12.9 12.6ZM6.622 29.4H12.9C13.6525 32.025 14.62 34.545 15.91 36.876C11.9755 35.553 8.6645 32.865 6.622 29.4ZM4.859 25.2C4.515 23.856 4.3 22.449 4.3 21C4.3 19.551 4.515 18.144 4.859 16.8H12.126C11.954 18.186 11.825 19.572 11.825 21C11.825 22.428 11.954 23.814 12.126 25.2M21.5 4.263C23.2845 6.783 24.725 9.597 25.6065 12.6H17.3935C18.275 9.597 19.7155 6.783 21.5 4.263ZM36.378 12.6H30.0355C29.3475 9.975 28.3585 7.455 27.0685 5.124C31.0245 6.447 34.314 9.114 36.378 12.6ZM21.5 0C9.6105 0 0 9.45 0 21C0 26.5695 2.26517 31.911 6.2972 35.8492C8.29366 37.7993 10.6638 39.3461 13.2723 40.4015C15.8808 41.4568 18.6766 42 21.5 42C27.2022 42 32.6708 39.7875 36.7028 35.8492C40.7348 31.911 43 26.5695 43 21C43 18.2422 42.4439 15.5115 41.3634 12.9636C40.2829 10.4158 38.6993 8.10079 36.7028 6.15076C34.7063 4.20073 32.3362 2.65388 29.7277 1.59853C27.1192 0.543181 24.3234 0 21.5 0Z" fill="#FE8E1C"/>
</svg>
