<svg width="48" height="41" viewBox="0 0 48 41" fill="none" xmlns="http://www.w3.org/2000/svg">
<path d="M32.8622 41H15.1378C14.5502 41 13.9866 40.76 13.5711 40.3329C13.1556 39.9057 12.9222 39.3263 12.9222 38.7222V20.6594L10.042 22.9372C9.17794 23.8256 7.78214 23.8256 6.91807 22.9372L0.64805 16.605C-0.216017 15.7167 -0.216017 14.2817 0.64805 13.3933L13.6755 0H17.3533C17.3533 2.50556 20.3222 4.55556 24 4.55556C27.6778 4.55556 30.6467 2.50556 30.6467 0H34.3245L47.352 13.3933C48.216 14.2817 48.216 15.7167 47.352 16.605L41.0819 23.0511C40.2179 23.9167 38.8221 23.9167 37.958 23.0511L35.0778 20.7733V38.7222C35.0778 39.3263 34.8444 39.9057 34.4289 40.3329C34.0134 40.76 33.4498 41 32.8622 41Z" fill="#FE8E1C"/>
</svg>
