<svg width="69" height="42" viewBox="0 0 69 42" fill="none" xmlns="http://www.w3.org/2000/svg">
<path d="M34.5 0C37.1687 0 39.7282 1.0681 41.6153 2.96933C43.5023 4.87056 44.5625 7.44918 44.5625 10.1379C44.5625 12.8267 43.5023 15.4053 41.6153 17.3065C39.7282 19.2078 37.1687 20.2759 34.5 20.2759C31.8313 20.2759 29.2718 19.2078 27.3847 17.3065C25.4977 15.4053 24.4375 12.8267 24.4375 10.1379C24.4375 7.44918 25.4977 4.87056 27.3847 2.96933C29.2718 1.0681 31.8313 0 34.5 0ZM14.375 7.24138C15.985 7.24138 17.48 7.67586 18.7738 8.45793C18.3425 12.6 19.55 16.7131 22.0225 19.9283C20.585 22.709 17.71 24.6207 14.375 24.6207C12.0875 24.6207 9.89371 23.7052 8.2762 22.0755C6.6587 20.4459 5.75 18.2357 5.75 15.931C5.75 13.6264 6.6587 11.4161 8.2762 9.78652C9.89371 8.15689 12.0875 7.24138 14.375 7.24138ZM54.625 7.24138C56.9125 7.24138 59.1063 8.15689 60.7238 9.78652C62.3413 11.4161 63.25 13.6264 63.25 15.931C63.25 18.2357 62.3413 20.4459 60.7238 22.0755C59.1063 23.7052 56.9125 24.6207 54.625 24.6207C51.29 24.6207 48.415 22.709 46.9775 19.9283C49.45 16.7131 50.6575 12.6 50.2262 8.45793C51.52 7.67586 53.015 7.24138 54.625 7.24138ZM15.8125 36.931C15.8125 30.9352 24.1788 26.069 34.5 26.069C44.8213 26.069 53.1875 30.9352 53.1875 36.931V42H15.8125V36.931ZM0 42V37.6552C0 33.629 5.43375 30.24 12.7937 29.2552C11.0975 31.2248 10.0625 33.9476 10.0625 36.931V42H0ZM69 42H58.9375V36.931C58.9375 33.9476 57.9025 31.2248 56.2062 29.2552C63.5662 30.24 69 33.629 69 37.6552V42Z" fill="#FE8E1C"/>
</svg>
