<svg width="54" height="43" viewBox="0 0 54 43" fill="none" xmlns="http://www.w3.org/2000/svg">
<path d="M48.6 0C51.597 0 54 2.39188 54 5.375V37.625C54 40.6081 51.597 43 48.6 43H5.4C2.403 43 0 40.6081 0 37.625V5.375C0 2.39188 2.403 0 5.4 0H48.6ZM17.55 29.5625V13.4375H14.175V22.8438L7.425 13.4375H4.05V29.5625H7.425V20.1562L14.31 29.5625H17.55ZM31.05 16.8238V13.4375H20.25V29.5625H31.05V26.2031H24.3V23.22H31.05V19.8337H24.3V16.8238H31.05ZM49.95 26.875V13.4375H46.575V25.5312H43.551V16.125H40.176V25.5312H37.125V13.4375H33.75V26.875C33.75 27.5878 34.0345 28.2713 34.5408 28.7753C35.0472 29.2794 35.7339 29.5625 36.45 29.5625H47.25C47.9661 29.5625 48.6528 29.2794 49.1592 28.7753C49.6655 28.2713 49.95 27.5878 49.95 26.875Z" fill="#FE8E1C"/>
</svg>
