<svg width="43" height="43" viewBox="0 0 43 43" fill="none" xmlns="http://www.w3.org/2000/svg">
<path d="M7.16667 33.4444C7.16667 28.6667 16.7222 26.0389 21.5 26.0389C26.2778 26.0389 35.8333 28.6667 35.8333 33.4444V35.8333H7.16667M28.6667 14.3333C28.6667 16.2341 27.9116 18.0569 26.5676 19.4009C25.2236 20.7449 23.4007 21.5 21.5 21.5C19.5993 21.5 17.7764 20.7449 16.4324 19.4009C15.0884 18.0569 14.3333 16.2341 14.3333 14.3333C14.3333 12.4326 15.0884 10.6097 16.4324 9.26573C17.7764 7.92172 19.5993 7.16667 21.5 7.16667C23.4007 7.16667 25.2236 7.92172 26.5676 9.26573C27.9116 10.6097 28.6667 12.4326 28.6667 14.3333ZM0 4.77778V38.2222C0 39.4894 0.503371 40.7046 1.39938 41.6006C2.29539 42.4966 3.51063 43 4.77778 43H38.2222C39.4894 43 40.7046 42.4966 41.6006 41.6006C42.4966 40.7046 43 39.4894 43 38.2222V4.77778C43 3.51063 42.4966 2.29539 41.6006 1.39938C40.7046 0.503371 39.4894 0 38.2222 0H4.77778C2.12611 0 0 2.15 0 4.77778Z" fill="#FE8E1C"/>
</svg>
