<svg width="44" height="43" viewBox="0 0 44 43" fill="none" xmlns="http://www.w3.org/2000/svg">
<path d="M32 23.4545H24V19.5455H28C29.0609 19.5455 30.0783 19.1336 30.8284 18.4005C31.5786 17.6674 32 16.6731 32 15.6364V11.7273C32 9.55773 30.2 7.81818 28 7.81818H20V11.7273H28V15.6364H24C22.9391 15.6364 21.9217 16.0482 21.1716 16.7813C20.4214 17.5144 20 18.5087 20 19.5455V27.3636H32M40 31.2727H12V3.90909H40M40 0H12C10.9391 0 9.92172 0.41185 9.17157 1.14495C8.42143 1.87804 8 2.87234 8 3.90909V31.2727C8 32.3095 8.42143 33.3038 9.17157 34.0369C9.92172 34.77 10.9391 35.1818 12 35.1818H40C41.0609 35.1818 42.0783 34.77 42.8284 34.0369C43.5786 33.3038 44 32.3095 44 31.2727V3.90909C44 2.87234 43.5786 1.87804 42.8284 1.14495C42.0783 0.41185 41.0609 0 40 0ZM4 7.81818H0V39.0909C0 40.1277 0.421427 41.122 1.17157 41.8551C1.92172 42.5882 2.93913 43 4 43H36V39.0909H4V7.81818Z" fill="#FE8E1C"/>
</svg>
